<?xml version="1.0" encoding="utf-8"?>
<svg xmlns="http://www.w3.org/2000/svg" xmlns:xlink="http://www.w3.org/1999/xlink" style="margin: auto; background: rgb(241, 242, 243); display: block; shape-rendering: auto;" width="131px" height="131px" viewBox="0 0 100 100" preserveAspectRatio="xMidYMid">
<g transform="rotate(0 50 50)">
  <rect x="47" y="19" rx="3" ry="6" width="6" height="12" fill="#912623">
    <animate attributeName="opacity" values="1;0" keyTimes="0;1" dur="1.2048192771084336s" begin="-1.1378848728246318s" repeatCount="indefinite"></animate>
  </rect>
</g><g transform="rotate(20 50 50)">
  <rect x="47" y="19" rx="3" ry="6" width="6" height="12" fill="#912623">
    <animate attributeName="opacity" values="1;0" keyTimes="0;1" dur="1.2048192771084336s" begin="-1.07095046854083s" repeatCount="indefinite"></animate>
  </rect>
</g><g transform="rotate(40 50 50)">
  <rect x="47" y="19" rx="3" ry="6" width="6" height="12" fill="#912623">
    <animate attributeName="opacity" values="1;0" keyTimes="0;1" dur="1.2048192771084336s" begin="-1.004016064257028s" repeatCount="indefinite"></animate>
  </rect>
</g><g transform="rotate(60 50 50)">
  <rect x="47" y="19" rx="3" ry="6" width="6" height="12" fill="#912623">
    <animate attributeName="opacity" values="1;0" keyTimes="0;1" dur="1.2048192771084336s" begin="-0.9370816599732261s" repeatCount="indefinite"></animate>
  </rect>
</g><g transform="rotate(80 50 50)">
  <rect x="47" y="19" rx="3" ry="6" width="6" height="12" fill="#912623">
    <animate attributeName="opacity" values="1;0" keyTimes="0;1" dur="1.2048192771084336s" begin="-0.8701472556894243s" repeatCount="indefinite"></animate>
  </rect>
</g><g transform="rotate(100 50 50)">
  <rect x="47" y="19" rx="3" ry="6" width="6" height="12" fill="#912623">
    <animate attributeName="opacity" values="1;0" keyTimes="0;1" dur="1.2048192771084336s" begin="-0.8032128514056224s" repeatCount="indefinite"></animate>
  </rect>
</g><g transform="rotate(120 50 50)">
  <rect x="47" y="19" rx="3" ry="6" width="6" height="12" fill="#912623">
    <animate attributeName="opacity" values="1;0" keyTimes="0;1" dur="1.2048192771084336s" begin="-0.7362784471218206s" repeatCount="indefinite"></animate>
  </rect>
</g><g transform="rotate(140 50 50)">
  <rect x="47" y="19" rx="3" ry="6" width="6" height="12" fill="#912623">
    <animate attributeName="opacity" values="1;0" keyTimes="0;1" dur="1.2048192771084336s" begin="-0.6693440428380187s" repeatCount="indefinite"></animate>
  </rect>
</g><g transform="rotate(160 50 50)">
  <rect x="47" y="19" rx="3" ry="6" width="6" height="12" fill="#912623">
    <animate attributeName="opacity" values="1;0" keyTimes="0;1" dur="1.2048192771084336s" begin="-0.6024096385542168s" repeatCount="indefinite"></animate>
  </rect>
</g><g transform="rotate(180 50 50)">
  <rect x="47" y="19" rx="3" ry="6" width="6" height="12" fill="#912623">
    <animate attributeName="opacity" values="1;0" keyTimes="0;1" dur="1.2048192771084336s" begin="-0.535475234270415s" repeatCount="indefinite"></animate>
  </rect>
</g><g transform="rotate(200 50 50)">
  <rect x="47" y="19" rx="3" ry="6" width="6" height="12" fill="#912623">
    <animate attributeName="opacity" values="1;0" keyTimes="0;1" dur="1.2048192771084336s" begin="-0.46854082998661306s" repeatCount="indefinite"></animate>
  </rect>
</g><g transform="rotate(220 50 50)">
  <rect x="47" y="19" rx="3" ry="6" width="6" height="12" fill="#912623">
    <animate attributeName="opacity" values="1;0" keyTimes="0;1" dur="1.2048192771084336s" begin="-0.4016064257028112s" repeatCount="indefinite"></animate>
  </rect>
</g><g transform="rotate(240 50 50)">
  <rect x="47" y="19" rx="3" ry="6" width="6" height="12" fill="#912623">
    <animate attributeName="opacity" values="1;0" keyTimes="0;1" dur="1.2048192771084336s" begin="-0.33467202141900937s" repeatCount="indefinite"></animate>
  </rect>
</g><g transform="rotate(260 50 50)">
  <rect x="47" y="19" rx="3" ry="6" width="6" height="12" fill="#912623">
    <animate attributeName="opacity" values="1;0" keyTimes="0;1" dur="1.2048192771084336s" begin="-0.2677376171352075s" repeatCount="indefinite"></animate>
  </rect>
</g><g transform="rotate(280 50 50)">
  <rect x="47" y="19" rx="3" ry="6" width="6" height="12" fill="#912623">
    <animate attributeName="opacity" values="1;0" keyTimes="0;1" dur="1.2048192771084336s" begin="-0.2008032128514056s" repeatCount="indefinite"></animate>
  </rect>
</g><g transform="rotate(300 50 50)">
  <rect x="47" y="19" rx="3" ry="6" width="6" height="12" fill="#912623">
    <animate attributeName="opacity" values="1;0" keyTimes="0;1" dur="1.2048192771084336s" begin="-0.13386880856760375s" repeatCount="indefinite"></animate>
  </rect>
</g><g transform="rotate(320 50 50)">
  <rect x="47" y="19" rx="3" ry="6" width="6" height="12" fill="#912623">
    <animate attributeName="opacity" values="1;0" keyTimes="0;1" dur="1.2048192771084336s" begin="-0.06693440428380187s" repeatCount="indefinite"></animate>
  </rect>
</g><g transform="rotate(340 50 50)">
  <rect x="47" y="19" rx="3" ry="6" width="6" height="12" fill="#912623">
    <animate attributeName="opacity" values="1;0" keyTimes="0;1" dur="1.2048192771084336s" begin="0s" repeatCount="indefinite"></animate>
  </rect>
</g>
<!-- [ldio] generated by https://loading.io/ --></svg>